<svg id="Layer_2" data-name="Layer 2" xmlns="http://www.w3.org/2000/svg" viewBox="0 0 640 640"><defs><style>.cls-1{fill:#e9c46a;}.cls-2,.cls-3,.cls-4{fill:#facfad;}.cls-2,.cls-3,.cls-4,.cls-5,.cls-6,.cls-7{stroke:#264653;stroke-miterlimit:10;}.cls-2,.cls-3{stroke-width:6px;}.cls-3,.cls-5,.cls-6,.cls-7{stroke-linecap:round;}.cls-4{stroke-width:5.24px;}.cls-5,.cls-6,.cls-7{fill:none;}.cls-5{stroke-width:5.24px;}.cls-6{stroke-width:4.5px;}.cls-7{stroke-width:5.92px;}</style></defs><circle class="cls-1" cx="333" cy="294" r="141"/><path class="cls-2" d="M148.5,366.5s-15-24,3-91c9.69-36.06,6-42,17-42,21.1,0-.08,53.61,23,53,38-1,65-70,80.79-57.48,12,9.53-45.14,61.39-40.47,65.93S302.5,248.5,312.5,263.5s-74.12,49-66.56,56.5,74.56-21.5,83.56-4.5-77,25-76,34,63,14,58,30-62-7-72-3S175,408,148.5,366.5Z"/><path class="cls-2" d="M362,395s13.6,49,59,49c20.28,0,38.73-17,46-38,6.71-19.41,5-33,0-47-2.38-6.66-11-13-20-20-5.53-4.3-22-11-22-11Z"/><path class="cls-2" d="M353,364s-22,11.88,0,28.94S390,401,391,398s3-9-2-14S357,359,353,364Z"/><path class="cls-2" d="M358,340s-22,11.88,0,28.94S395,377,396,374s3-9-2-14S362,335,358,340Z"/><path class="cls-2" d="M377.33,319.85s-23.65,8.12-4.74,28.55,35.18,14,36.66,11.21,4.44-8.39.32-14.14S382.1,315.57,377.33,319.85Z"/><path class="cls-2" d="M418.4,215.9s19.17,16,26.89-10.7S439.11,167.84,436,168s-9.48.54-12.27,7S412.28,214,418.4,215.9Z"/><path class="cls-2" d="M401.85,306.1s-24.16,6.44-6.73,28.15,34.12,16.44,35.79,13.75,5-8.06,1.31-14.08S406.9,302.17,401.85,306.1Z"/><path class="cls-3" d="M454.71,345.08S413,349,410,352s-25.07,24.12-24.53,28.06S400,397,416,385s12-10,12-10-12,26,1,42"/><path class="cls-2" d="M391.42,184.3s-77.16,48.48-63.64,73.41,62.84-34.35,62.84-34.35S357,286.26,373,297s55.17-86.82,55.17-86.82Z"/><path class="cls-2" d="M459.69,148s-37.78-13.93-57.63,3.13-27.19,34.44-19.7,47.25,17.66,18.53,24.16,20.38,16.24,4.86,20.22,5.27,18.34-12.19-16.63-33.88c-5.78-3.59,54.73,34.78,56.62,36,8.36,5.31,27-28.38,18.25-50.4S459.69,148,459.69,148Z"/><path class="cls-2" d="M416.05,244s17.42,17.93,27.84-7.89-2.33-37.79-5.48-37.94-9.48-.43-12.93,5.74S410.15,241.48,416.05,244Z"/><path class="cls-4" d="M437.76,248.64s15.23,15.67,24.33-6.89-2-33-4.8-33.15-8.28-.38-11.29,5S432.6,246.47,437.76,248.64Z"/><path class="cls-5" d="M194.5,305.5c0,23.77-9.39,43-21,43"/><path class="cls-6" d="M449.16,167.78c-6.46,16.76-20.25,27-30.82,22.94"/><path class="cls-7" d="M208.47,303.35c20.91,17.14,21.58,35.24,22.91,49.22"/></svg>